<?xml version="1.0" encoding="UTF-8" standalone="no"?>
<!-- Created with Inkscape (http://www.inkscape.org/) -->

<svg
   xmlns:dc="http://purl.org/dc/elements/1.1/"
   xmlns:cc="http://creativecommons.org/ns#"
   xmlns:rdf="http://www.w3.org/1999/02/22-rdf-syntax-ns#"
   xmlns:svg="http://www.w3.org/2000/svg"
   xmlns="http://www.w3.org/2000/svg"
   xmlns:sodipodi="http://sodipodi.sourceforge.net/DTD/sodipodi-0.dtd"
   xmlns:inkscape="http://www.inkscape.org/namespaces/inkscape"
   width="588.48541"
   height="278.6105"
   id="svg5279"
   version="1.1"
   inkscape:version="0.48.5 r10040"
   sodipodi:docname="logo-white-bg.svg"
   inkscape:export-filename="/home/gjehle/Desktop/expose/images/logo_shack_large.png"
   inkscape:export-xdpi="46.400002"
   inkscape:export-ydpi="46.400002">
  <defs
     id="defs5281">
    <inkscape:perspective
       sodipodi:type="inkscape:persp3d"
       inkscape:vp_x="0 : 526.18109 : 1"
       inkscape:vp_y="0 : 1000 : 0"
       inkscape:vp_z="744.09448 : 526.18109 : 1"
       inkscape:persp3d-origin="372.04724 : 350.78739 : 1"
       id="perspective5287" />
    <inkscape:perspective
       id="perspective5190"
       inkscape:persp3d-origin="0.5 : 0.33333333 : 1"
       inkscape:vp_z="1 : 0.5 : 1"
       inkscape:vp_y="0 : 1000 : 0"
       inkscape:vp_x="0 : 0.5 : 1"
       sodipodi:type="inkscape:persp3d" />
    <inkscape:perspective
       id="perspective12583"
       inkscape:persp3d-origin="0.5 : 0.33333333 : 1"
       inkscape:vp_z="1 : 0.5 : 1"
       inkscape:vp_y="0 : 1000 : 0"
       inkscape:vp_x="0 : 0.5 : 1"
       sodipodi:type="inkscape:persp3d" />
    <inkscape:perspective
       id="perspective3350"
       inkscape:persp3d-origin="0.5 : 0.33333333 : 1"
       inkscape:vp_z="1 : 0.5 : 1"
       inkscape:vp_y="0 : 1000 : 0"
       inkscape:vp_x="0 : 0.5 : 1"
       sodipodi:type="inkscape:persp3d" />
  </defs>
  <sodipodi:namedview
     id="base"
     pagecolor="#ffffff"
     bordercolor="#666666"
     borderopacity="1.0"
     inkscape:pageopacity="0"
     inkscape:pageshadow="2"
     inkscape:zoom="1.4"
     inkscape:cx="161.53042"
     inkscape:cy="119.67362"
     inkscape:document-units="px"
     inkscape:current-layer="layer1"
     showgrid="false"
     inkscape:window-width="1596"
     inkscape:window-height="877"
     inkscape:window-x="0"
     inkscape:window-y="19"
     inkscape:window-maximized="1"
     showguides="false"
     inkscape:guide-bbox="true"
     units="mm"
     fit-margin-top="2"
     fit-margin-left="2"
     fit-margin-right="2"
     fit-margin-bottom="2">
    <sodipodi:guide
       orientation="1,0"
       position="1666.3114,1269.8752"
       id="guide9092" />
    <sodipodi:guide
       orientation="1,0"
       position="-128.22467,2834.8856"
       id="guide9135" />
    <sodipodi:guide
       orientation="0,1"
       position="-127.56176,2834.3174"
       id="guide9137" />
    <sodipodi:guide
       orientation="1,0"
       position="4084.1114,-111.25573"
       id="guide9139" />
    <sodipodi:guide
       orientation="0,1"
       position="4119.4667,-144.59077"
       id="guide9141" />
    <sodipodi:guide
       orientation="1,0"
       position="25.937208,75.620043"
       id="guide2950" />
  </sodipodi:namedview>
  <metadata
     id="metadata5284">
    <rdf:RDF>
      <cc:Work
         rdf:about="">
        <dc:format>image/svg+xml</dc:format>
        <dc:type
           rdf:resource="http://purl.org/dc/dcmitype/StillImage" />
        <dc:title />
      </cc:Work>
    </rdf:RDF>
  </metadata>
  <g
     inkscape:label="Layer 1"
     inkscape:groupmode="layer"
     id="layer1"
     transform="translate(-128.22464,-628.15073)">
    <g
       style="font-size:56.15565872px;font-style:normal;font-weight:normal;line-height:125%;fill:#000000;fill-opacity:1;stroke:none;font-family:Bitstream Vera Sans"
       id="text2892"
       transform="translate(475.63104,-1332.7913)">
      <path
         d="m -318.49365,2190.9799 0,4.771 c -1.42586,-0.7311 -2.90652,-1.2795 -4.44201,-1.6452 -1.53552,-0.3655 -3.12586,-0.5483 -4.77103,-0.5484 -2.50435,1e-4 -4.38717,0.3839 -5.64847,1.1517 -1.24304,0.7677 -1.86455,1.9194 -1.86455,3.4549 0,1.1699 0.44785,2.093 1.34357,2.7694 0.8957,0.658 2.69627,1.2887 5.40169,1.8919 l 1.72745,0.3839 c 3.58283,0.7678 6.12372,1.8554 7.62269,3.2629 1.5172,1.3893 2.27581,3.3361 2.27584,5.8405 -3e-5,2.8516 -1.13337,5.1092 -3.40005,6.7726 -2.24844,1.6635 -5.34687,2.4952 -9.2953,2.4952 -1.64519,0 -3.3635,-0.1645 -5.15491,-0.4935 -1.77315,-0.3108 -3.64683,-0.7861 -5.62105,-1.4259 l 0,-5.2097 c 1.86454,0.9688 3.70166,1.7 5.51137,2.1936 1.80969,0.4753 3.60112,0.7129 5.37427,0.7129 2.37637,0 4.20435,-0.4022 5.48395,-1.2065 1.27957,-0.8226 1.91937,-1.9742 1.91939,-3.4549 -2e-5,-1.3709 -0.46616,-2.422 -1.39841,-3.1532 -0.91401,-0.7312 -2.93393,-1.435 -6.05977,-2.1114 l -1.75486,-0.4113 c -3.12586,-0.658 -5.38342,-1.6634 -6.77268,-3.0161 -1.38927,-1.371 -2.08391,-3.2447 -2.0839,-5.6211 -1e-5,-2.8882 1.02366,-5.1183 3.07101,-6.6904 2.04733,-1.572 4.95383,-2.3581 8.71948,-2.3581 1.86453,0 3.61939,0.1371 5.2646,0.4113 1.64516,0.2742 3.16238,0.6855 4.55168,1.2339"
         style="font-variant:normal;font-stretch:normal;text-align:start;line-height:125%;writing-mode:lr-tb;text-anchor:start;fill:#000000;fill-opacity:1;font-family:DejaVu Sans;-inkscape-font-specification:DejaVu Sans"
         id="path4561"
         inkscape:connector-curvature="0" />
      <path
         d="m -305.93952,2181.3555 0,8.7195 10.39208,0 0,3.9211 -10.39208,0 0,16.6712 c -10e-6,2.5043 0.33816,4.1129 1.01453,4.8258 0.69462,0.713 2.09303,1.0694 4.19522,1.0694 l 5.18233,0 0,4.2227 -5.18233,0 c -3.89362,0 -6.58075,-0.7221 -8.06141,-2.1662 -1.48067,-1.4624 -2.221,-4.113 -2.221,-7.9517 l 0,-16.6712 -3.70166,0 0,-3.9211 3.70166,0 0,-8.7195 5.07266,0"
         style="font-variant:normal;font-stretch:normal;text-align:start;line-height:125%;writing-mode:lr-tb;text-anchor:start;fill:#000000;fill-opacity:1;font-family:DejaVu Sans;-inkscape-font-specification:DejaVu Sans"
         id="path4563"
         inkscape:connector-curvature="0" />
      <path
         d="m -290.83399,2208.6656 0,-18.5906 5.04524,0 0,18.3987 c -1e-5,2.9065 0.56666,5.0909 1.70002,6.5533 1.13334,1.4441 2.83337,2.1662 5.10008,2.1662 2.72368,0 4.87155,-0.8683 6.44364,-2.6049 1.59032,-1.7366 2.38549,-4.1038 2.38552,-7.1017 l 0,-17.4116 5.04524,0 0,30.7102 -5.04524,0 0,-4.7162 c -1.22477,1.8645 -2.6506,3.2538 -4.27748,4.1678 -1.60865,0.8957 -3.48233,1.3435 -5.62105,1.3435 -3.52802,0 -6.20602,-1.0968 -8.03399,-3.2903 -1.82799,-2.1936 -2.74198,-5.4017 -2.74198,-9.6244 m 12.69535,-19.3309 0,0"
         style="font-variant:normal;font-stretch:normal;text-align:start;line-height:125%;writing-mode:lr-tb;text-anchor:start;fill:#000000;fill-opacity:1;font-family:DejaVu Sans;-inkscape-font-specification:DejaVu Sans"
         id="path4565"
         inkscape:connector-curvature="0" />
      <path
         d="m -251.81979,2181.3555 0,8.7195 10.39209,0 0,3.9211 -10.39209,0 0,16.6712 c -10e-6,2.5043 0.33817,4.1129 1.01453,4.8258 0.69463,0.713 2.09303,1.0694 4.19523,1.0694 l 5.18233,0 0,4.2227 -5.18233,0 c -3.89362,0 -6.58075,-0.7221 -8.06141,-2.1662 -1.48067,-1.4624 -2.22101,-4.113 -2.221,-7.9517 l 0,-16.6712 -3.70167,0 0,-3.9211 3.70167,0 0,-8.7195 5.07265,0"
         style="font-variant:normal;font-stretch:normal;text-align:start;line-height:125%;writing-mode:lr-tb;text-anchor:start;fill:#000000;fill-opacity:1;font-family:DejaVu Sans;-inkscape-font-specification:DejaVu Sans"
         id="path4567"
         inkscape:connector-curvature="0" />
      <path
         d="m -229.06001,2181.3555 0,8.7195 10.39208,0 0,3.9211 -10.39208,0 0,16.6712 c -1e-5,2.5043 0.33816,4.1129 1.01453,4.8258 0.69462,0.713 2.09302,1.0694 4.19522,1.0694 l 5.18233,0 0,4.2227 -5.18233,0 c -3.89362,0 -6.58075,-0.7221 -8.06141,-2.1662 -1.48067,-1.4624 -2.221,-4.113 -2.221,-7.9517 l 0,-16.6712 -3.70167,0 0,-3.9211 3.70167,0 0,-8.7195 5.07266,0"
         style="font-variant:normal;font-stretch:normal;text-align:start;line-height:125%;writing-mode:lr-tb;text-anchor:start;fill:#000000;fill-opacity:1;font-family:DejaVu Sans;-inkscape-font-specification:DejaVu Sans"
         id="path4569"
         inkscape:connector-curvature="0" />
      <path
         d="m -193.22514,2205.0736 c -3e-5,-3.6559 -0.75864,-6.4893 -2.27584,-8.5001 -1.49897,-2.0107 -3.61029,-3.0161 -6.33397,-3.0162 -2.70543,1e-4 -4.81675,1.0055 -6.33396,3.0162 -1.49896,2.0108 -2.24843,4.8442 -2.24842,8.5001 -1e-5,3.6377 0.74946,6.462 2.24842,8.4727 1.51721,2.0108 3.62853,3.0162 6.33396,3.0162 2.72368,0 4.835,-1.0054 6.33397,-3.0162 1.5172,-2.0107 2.27581,-4.835 2.27584,-8.4727 m 5.04523,11.9002 c -3e-5,5.228 -1.1608,9.1125 -3.48231,11.6534 -2.32156,2.5592 -5.87699,3.8388 -10.66628,3.8388 -1.77316,0 -3.44577,-0.1371 -5.01782,-0.4113 -1.57207,-0.256 -3.09844,-0.6581 -4.5791,-1.2065 l 0,-4.9081 c 1.48066,0.8043 2.94305,1.3984 4.38716,1.7823 1.4441,0.3838 2.91562,0.5758 4.41458,0.5758 3.30864,0 5.78555,-0.8683 7.43076,-2.6049 1.64516,-1.7183 2.46775,-4.3232 2.46778,-7.8146 l 0,-2.4952 c -1.04198,1.8097 -2.37641,3.1624 -4.00329,4.0581 -1.62692,0.8957 -3.57373,1.3436 -5.84041,1.3436 -3.76566,0 -6.80011,-1.435 -9.10336,-4.3049 -2.30326,-2.87 -3.45489,-6.6722 -3.45488,-11.4067 -1e-5,-4.7527 1.15162,-8.564 3.45488,-11.434 2.30325,-2.8699 5.3377,-4.3049 9.10336,-4.3049 2.26668,0 4.21349,0.4479 5.84041,1.3436 1.62688,0.8957 2.96131,2.2484 4.00329,4.0581 l 0,-4.6614 5.04523,0 0,26.8988"
         style="font-variant:normal;font-stretch:normal;text-align:start;line-height:125%;writing-mode:lr-tb;text-anchor:start;fill:#000000;fill-opacity:1;font-family:DejaVu Sans;-inkscape-font-specification:DejaVu Sans"
         id="path4571"
         inkscape:connector-curvature="0" />
      <path
         d="m -167.40259,2205.3478 c -4.07642,0 -6.90065,0.4662 -8.47271,1.3984 -1.57207,0.9323 -2.3581,2.5227 -2.3581,4.7711 0,1.7914 0.58495,3.2172 1.75487,4.2775 1.18818,1.0419 2.7968,1.5629 4.82588,1.5629 2.79679,0 5.03607,-0.9871 6.71784,-2.9613 1.7,-1.9925 2.55001,-4.634 2.55003,-7.9244 l 0,-1.1242 -5.01781,0 m 10.06305,-2.0839 0,17.5213 -5.04524,0 0,-4.6614 c -1.15165,1.8645 -2.58662,3.2447 -4.3049,4.1404 -1.71832,0.8774 -3.8205,1.3161 -6.30654,1.3161 -3.14414,0 -5.64848,-0.8774 -7.51302,-2.6323 -1.84626,-1.7731 -2.76939,-4.1403 -2.76939,-7.1017 0,-3.4549 1.15162,-6.0597 3.45489,-7.8146 2.32153,-1.7549 5.77641,-2.6323 10.36467,-2.6323 l 7.07429,0 0,-0.4936 c -2e-5,-2.3215 -0.76777,-4.1129 -2.30326,-5.3742 -1.51724,-1.2796 -3.65598,-1.9194 -6.41622,-1.9194 -1.75488,0 -3.46404,0.2102 -5.12749,0.6306 -1.66348,0.4205 -3.26296,1.0511 -4.79846,1.892 l 0,-4.6614 c 1.84626,-0.7128 3.63768,-1.243 5.37427,-1.5903 1.73657,-0.3656 3.42746,-0.5484 5.07266,-0.5484 4.44198,0 7.75976,1.1517 9.95337,3.4549 2.19355,2.3033 3.29034,5.7947 3.29037,10.4743"
         style="font-variant:normal;font-stretch:normal;text-align:start;line-height:125%;writing-mode:lr-tb;text-anchor:start;fill:#000000;fill-opacity:1;font-family:DejaVu Sans;-inkscape-font-specification:DejaVu Sans"
         id="path4573"
         inkscape:connector-curvature="0" />
      <path
         d="m -134.12462,2194.7912 c -0.56669,-0.329 -1.18821,-0.5666 -1.86454,-0.7129 -0.6581,-0.1645 -1.38929,-0.2467 -2.19358,-0.2468 -2.85167,1e-4 -5.04525,0.9323 -6.58074,2.7969 -1.51724,1.8462 -2.27585,4.506 -2.27584,7.9791 l 0,16.1777 -5.07266,0 0,-30.7102 5.07266,0 0,4.7711 c 1.06022,-1.8645 2.44034,-3.2447 4.14038,-4.1404 1.70001,-0.914 3.76563,-1.371 6.19687,-1.371 0.34729,0 0.73117,0.027 1.15163,0.082 0.42041,0.037 0.88654,0.1005 1.3984,0.1919 l 0.0274,5.1823"
         style="font-variant:normal;font-stretch:normal;text-align:start;line-height:125%;writing-mode:lr-tb;text-anchor:start;fill:#000000;fill-opacity:1;font-family:DejaVu Sans;-inkscape-font-specification:DejaVu Sans"
         id="path4575"
         inkscape:connector-curvature="0" />
      <path
         d="m -121.6445,2181.3555 0,8.7195 10.39209,0 0,3.9211 -10.39209,0 0,16.6712 c -1e-5,2.5043 0.33816,4.1129 1.01453,4.8258 0.69462,0.713 2.09303,1.0694 4.19522,1.0694 l 5.18234,0 0,4.2227 -5.18234,0 c -3.89362,0 -6.58075,-0.7221 -8.06141,-2.1662 -1.48067,-1.4624 -2.221,-4.113 -2.221,-7.9517 l 0,-16.6712 -3.70166,0 0,-3.9211 3.70166,0 0,-8.7195 5.07266,0"
         style="font-variant:normal;font-stretch:normal;text-align:start;line-height:125%;writing-mode:lr-tb;text-anchor:start;fill:#000000;fill-opacity:1;font-family:DejaVu Sans;-inkscape-font-specification:DejaVu Sans"
         id="path4577"
         inkscape:connector-curvature="0" />
      <path
         d="m -61.183949,2202.2494 0,18.5358 -5.045235,0 0,-18.3713 c -2.6e-5,-2.9065 -0.5667,-5.0818 -1.700025,-6.5259 -1.133372,-1.4441 -2.833396,-2.1661 -5.100074,-2.1661 -2.723712,0 -4.871591,0.8683 -6.443643,2.6048 -1.572076,1.7366 -2.358109,4.1039 -2.358098,7.1018 l 0,17.3567 -5.072655,0 0,-42.6652 5.072655,0 0,16.7261 c 1.206457,-1.8463 2.623143,-3.2264 4.250062,-4.1404 1.645169,-0.914 3.53713,-1.371 5.675889,-1.371 3.527985,0 6.196838,1.0968 8.006568,3.2904 1.809674,2.1753 2.714525,5.3834 2.714556,9.6243"
         style="font-variant:normal;font-stretch:normal;text-align:start;line-height:125%;writing-mode:lr-tb;text-anchor:start;fill:#000000;fill-opacity:1;font-family:DejaVu Sans;-inkscape-font-specification:DejaVu Sans"
         id="path4579"
         inkscape:connector-curvature="0" />
      <path
         d="m -40.680836,2205.3478 c -4.076419,0 -6.900651,0.4662 -8.472705,1.3984 -1.572075,0.9323 -2.358107,2.5227 -2.358099,4.7711 -8e-6,1.7914 0.584946,3.2172 1.754865,4.2775 1.188178,1.0419 2.796802,1.5629 4.825877,1.5629 2.796797,0 5.036075,-0.9871 6.71784,-2.9613 1.700001,-1.9925 2.550013,-4.634 2.550037,-7.9244 l 0,-1.1242 -5.017815,0 m 10.06305,-2.0839 0,17.5213 -5.045235,0 0,-4.6614 c -1.151653,1.8645 -2.586619,3.2447 -4.304902,4.1404 -1.718322,0.8774 -3.820502,1.3161 -6.306543,1.3161 -3.144143,0 -5.648478,-0.8774 -7.513013,-2.6323 -1.846268,-1.7731 -2.769399,-4.1403 -2.769396,-7.1017 -3e-6,-3.4549 1.151626,-6.0597 3.45489,-7.8146 2.32153,-1.7549 5.776415,-2.6323 10.364667,-2.6323 l 7.074297,0 0,-0.4936 c -2.4e-5,-2.3215 -0.767777,-4.1129 -2.303259,-5.3742 -1.517247,-1.2796 -3.655986,-1.9194 -6.416223,-1.9194 -1.754878,0 -3.464041,0.2102 -5.127494,0.6306 -1.663474,0.4205 -3.262958,1.0511 -4.798458,1.892 l 0,-4.6614 c 1.846256,-0.7128 3.637679,-1.243 5.374272,-1.5903 1.736572,-0.3656 3.427455,-0.5484 5.072655,-0.5484 4.44198,0 7.759767,1.1517 9.953371,3.4549 2.193553,2.3033 3.290342,5.7947 3.290371,10.4743"
         style="font-variant:normal;font-stretch:normal;text-align:start;line-height:125%;writing-mode:lr-tb;text-anchor:start;fill:#000000;fill-opacity:1;font-family:DejaVu Sans;-inkscape-font-specification:DejaVu Sans"
         id="path4581"
         inkscape:connector-curvature="0" />
      <path
         d="m -1.6693711,2191.2541 0,4.7162 c -1.4258532,-0.786 -2.860819,-1.371 -4.3049015,-1.7549 -1.425849,-0.4021 -2.8699546,-0.6032 -4.3323214,-0.6032 -3.272106,0 -5.813001,1.042 -7.622692,3.1258 -1.809713,2.0657 -2.714564,4.9722 -2.714556,8.7195 -8e-6,3.7474 0.904843,6.663 2.714556,8.7469 1.809691,2.0656 4.350586,3.0985 7.622692,3.0984 1.4623668,1e-4 2.9064724,-0.1919 4.3323214,-0.5758 1.4440825,-0.4021 2.8790483,-0.9962 4.3049015,-1.7823 l 0,4.6614 c -1.4075734,0.6581 -2.8699589,1.1516 -4.3871608,1.4807 -1.4989681,0.329 -3.0984522,0.4935 -4.7984571,0.4935 -4.624812,0 -8.299056,-1.4532 -11.022742,-4.3597 -2.7237,-2.9065 -4.085546,-6.8275 -4.085543,-11.7631 -3e-6,-5.0086 1.370983,-8.9479 4.112963,-11.8179 2.760245,-2.8699 6.535028,-4.3049 11.324359,-4.3049 1.553766,0 3.070991,0.1645 4.5516794,0.4936 1.4806422,0.3107 2.9156079,0.786 4.3049015,1.4258"
         style="font-variant:normal;font-stretch:normal;text-align:start;line-height:125%;writing-mode:lr-tb;text-anchor:start;fill:#000000;fill-opacity:1;font-family:DejaVu Sans;-inkscape-font-specification:DejaVu Sans"
         id="path4583"
         inkscape:connector-curvature="0" />
      <path
         d="m 4.1106946,2178.12 5.0726547,0 0,25.1988 15.0534457,-13.2438 6.443642,0 -16.287334,14.368 16.972828,16.3422 -6.580741,0 -15.6018407,-14.9986 0,14.9986 -5.0726547,0 0,-42.6652"
         style="font-variant:normal;font-stretch:normal;text-align:start;line-height:125%;writing-mode:lr-tb;text-anchor:start;fill:#000000;fill-opacity:1;font-family:DejaVu Sans;-inkscape-font-specification:DejaVu Sans"
         id="path4585"
         inkscape:connector-curvature="0" />
      <path
         d="m 60.288288,2204.1688 0,2.4678 -23.197113,0 c 0.219349,3.4731 1.261299,6.1237 3.125852,7.9517 1.88281,1.8097 4.496824,2.7146 7.84205,2.7145 1.937641,1e-4 3.811323,-0.2376 5.62105,-0.7129 1.827957,-0.4752 3.637659,-1.1882 5.429111,-2.1387 l 0,4.771 c -1.809732,0.7678 -3.665134,1.3527 -5.56621,1.7549 -1.901126,0.4022 -3.829647,0.6032 -5.785568,0.6032 -4.899011,0 -8.783472,-1.4258 -11.653396,-4.2775 -2.851659,-2.8516 -4.277485,-6.7086 -4.277482,-11.5711 -3e-6,-5.0269 1.352703,-9.0119 4.058124,-11.955 2.723685,-2.9613 6.388789,-4.442 10.995321,-4.442 4.131221,0 7.394169,1.3345 9.788853,4.0033 2.412908,2.6506 3.619376,6.2608 3.619408,10.8308 m -5.045235,-1.4807 c -0.03659,-2.7602 -0.813479,-4.9629 -2.330679,-6.6081 -1.49897,-1.6452 -3.49147,-2.4678 -5.977507,-2.4678 -2.81511,0 -5.072668,0.7952 -6.77268,2.3855 -1.681754,1.5904 -2.650585,3.8296 -2.906494,6.7178 l 17.98736,-0.027"
         style="font-variant:normal;font-stretch:normal;text-align:start;line-height:125%;writing-mode:lr-tb;text-anchor:start;fill:#000000;fill-opacity:1;font-family:DejaVu Sans;-inkscape-font-specification:DejaVu Sans"
         id="path4587"
         inkscape:connector-curvature="0" />
      <path
         d="m 83.507325,2194.7912 c -0.566697,-0.329 -1.188211,-0.5666 -1.864543,-0.7129 -0.658095,-0.1645 -1.389288,-0.2467 -2.193581,-0.2468 -2.85167,1e-4 -5.045248,0.9323 -6.580741,2.7969 -1.517237,1.8462 -2.27585,4.506 -2.275839,7.9791 l 0,16.1777 -5.072655,0 0,-30.7102 5.072655,0 0,4.7711 c 1.060219,-1.8645 2.440345,-3.2447 4.140383,-4.1404 1.700008,-0.914 3.765628,-1.371 6.196864,-1.371 0.347296,0 0.731173,0.027 1.15163,0.082 0.420414,0.037 0.88655,0.1005 1.398408,0.1919 l 0.02742,5.1823"
         style="font-variant:normal;font-stretch:normal;text-align:start;line-height:125%;writing-mode:lr-tb;text-anchor:start;fill:#000000;fill-opacity:1;font-family:DejaVu Sans;-inkscape-font-specification:DejaVu Sans"
         id="path4589"
         inkscape:connector-curvature="0" />
      <path
         d="m 108.43188,2190.9799 0,4.771 c -1.42585,-0.7311 -2.90651,-1.2795 -4.442,-1.6452 -1.53552,-0.3655 -3.12587,-0.5483 -4.771035,-0.5484 -2.504351,1e-4 -4.387173,0.3839 -5.64847,1.1517 -1.243038,0.7677 -1.864552,1.9194 -1.864543,3.4549 -9e-6,1.1699 0.447847,2.093 1.343568,2.7694 0.895701,0.658 2.696263,1.2887 5.401691,1.8919 l 1.727449,0.3839 c 3.58282,0.7678 6.12372,1.8554 7.62269,3.2629 1.5172,1.3893 2.27581,3.3361 2.27584,5.8405 -3e-5,2.8516 -1.13338,5.1092 -3.40005,6.7726 -2.24844,1.6635 -5.34687,2.4952 -9.295299,2.4952 -1.645198,0 -3.3635,-0.1645 -5.154914,-0.4935 -1.773151,-0.3108 -3.646833,-0.7861 -5.62105,-1.4259 l 0,-5.2097 c 1.864539,0.9688 3.70166,1.7 5.511371,2.1936 1.809693,0.4753 3.601116,0.7129 5.374272,0.7129 2.376362,0 4.20434,-0.4022 5.48395,-1.2065 1.27957,-0.8226 1.91936,-1.9742 1.91938,-3.4549 -2e-5,-1.3709 -0.46615,-2.422 -1.3984,-3.1532 -0.91401,-0.7312 -2.93393,-1.435 -6.05977,-2.1114 l -1.754864,-0.4113 c -3.125861,-0.658 -5.383419,-1.6634 -6.772679,-3.0161 -1.389272,-1.371 -2.083905,-3.2447 -2.083902,-5.6211 -3e-6,-2.8882 1.023667,-5.1183 3.071013,-6.6904 2.047333,-1.572 4.953824,-2.3581 8.719482,-2.3581 1.86453,0 3.61939,0.1371 5.26459,0.4113 1.64517,0.2742 3.16239,0.6855 4.55168,1.2339"
         style="font-variant:normal;font-stretch:normal;text-align:start;line-height:125%;writing-mode:lr-tb;text-anchor:start;fill:#000000;fill-opacity:1;font-family:DejaVu Sans;-inkscape-font-specification:DejaVu Sans"
         id="path4591"
         inkscape:connector-curvature="0" />
      <path
         d="m 120.87634,2216.1786 0,16.2874 -5.07265,0 0,-42.391 5.07265,0 0,4.6614 c 1.06022,-1.828 2.39465,-3.1807 4.00329,-4.0581 1.62689,-0.8957 3.56455,-1.3436 5.81298,-1.3436 3.72907,0 6.75438,1.4807 9.07594,4.442 2.33979,2.9614 3.5097,6.855 3.50973,11.6808 -3e-5,4.8259 -1.16994,8.7195 -3.50973,11.6808 -2.32156,2.9614 -5.34687,4.442 -9.07594,4.442 -2.24843,0 -4.18609,-0.4387 -5.81298,-1.3161 -1.60864,-0.8957 -2.94307,-2.2576 -4.00329,-4.0856 m 17.16477,-10.7211 c -3e-5,-3.7108 -0.76778,-6.6173 -2.30326,-8.7195 -1.51725,-2.1204 -3.61029,-3.1806 -6.27912,-3.1807 -2.66888,1e-4 -4.77106,1.0603 -6.30655,3.1807 -1.51724,2.1022 -2.27585,5.0087 -2.27584,8.7195 -1e-5,3.7108 0.7586,6.6265 2.27584,8.7469 1.53549,2.1022 3.63767,3.1533 6.30655,3.1533 2.66883,0 4.76187,-1.0511 6.27912,-3.1533 1.53548,-2.1204 2.30323,-5.0361 2.30326,-8.7469"
         style="font-variant:normal;font-stretch:normal;text-align:start;line-height:125%;writing-mode:lr-tb;text-anchor:start;fill:#000000;fill-opacity:1;font-family:DejaVu Sans;-inkscape-font-specification:DejaVu Sans"
         id="path4593"
         inkscape:connector-curvature="0" />
      <path
         d="m 162.74083,2205.3478 c -4.07642,0 -6.90066,0.4662 -8.47271,1.3984 -1.57207,0.9323 -2.35811,2.5227 -2.3581,4.7711 -1e-5,1.7914 0.58495,3.2172 1.75487,4.2775 1.18817,1.0419 2.7968,1.5629 4.82587,1.5629 2.7968,0 5.03608,-0.9871 6.71784,-2.9613 1.7,-1.9925 2.55002,-4.634 2.55004,-7.9244 l 0,-1.1242 -5.01781,0 m 10.06305,-2.0839 0,17.5213 -5.04524,0 0,-4.6614 c -1.15165,1.8645 -2.58662,3.2447 -4.3049,4.1404 -1.71832,0.8774 -3.8205,1.3161 -6.30654,1.3161 -3.14415,0 -5.64848,-0.8774 -7.51302,-2.6323 -1.84627,-1.7731 -2.7694,-4.1403 -2.76939,-7.1017 -1e-5,-3.4549 1.15162,-6.0597 3.45489,-7.8146 2.32153,-1.7549 5.77641,-2.6323 10.36466,-2.6323 l 7.0743,0 0,-0.4936 c -2e-5,-2.3215 -0.76778,-4.1129 -2.30326,-5.3742 -1.51725,-1.2796 -3.65598,-1.9194 -6.41622,-1.9194 -1.75488,0 -3.46404,0.2102 -5.1275,0.6306 -1.66347,0.4205 -3.26295,1.0511 -4.79845,1.892 l 0,-4.6614 c 1.84625,-0.7128 3.63768,-1.243 5.37427,-1.5903 1.73657,-0.3656 3.42745,-0.5484 5.07265,-0.5484 4.44198,0 7.75977,1.1517 9.95337,3.4549 2.19356,2.3033 3.29035,5.7947 3.29038,10.4743"
         style="font-variant:normal;font-stretch:normal;text-align:start;line-height:125%;writing-mode:lr-tb;text-anchor:start;fill:#000000;fill-opacity:1;font-family:DejaVu Sans;-inkscape-font-specification:DejaVu Sans"
         id="path4595"
         inkscape:connector-curvature="0" />
      <path
         d="m 201.75229,2191.2541 0,4.7162 c -1.42585,-0.786 -2.86082,-1.371 -4.3049,-1.7549 -1.42585,-0.4021 -2.86996,-0.6032 -4.33232,-0.6032 -3.27211,0 -5.813,1.042 -7.62269,3.1258 -1.80972,2.0657 -2.71457,4.9722 -2.71456,8.7195 -1e-5,3.7474 0.90484,6.663 2.71456,8.7469 1.80969,2.0656 4.35058,3.0985 7.62269,3.0984 1.46236,1e-4 2.90647,-0.1919 4.33232,-0.5758 1.44408,-0.4021 2.87905,-0.9962 4.3049,-1.7823 l 0,4.6614 c -1.40757,0.6581 -2.86996,1.1516 -4.38716,1.4807 -1.49897,0.329 -3.09845,0.4935 -4.79846,0.4935 -4.62481,0 -8.29905,-1.4532 -11.02274,-4.3597 -2.7237,-2.9065 -4.08555,-6.8275 -4.08554,-11.7631 -1e-5,-5.0086 1.37098,-8.9479 4.11296,-11.8179 2.76025,-2.8699 6.53503,-4.3049 11.32436,-4.3049 1.55377,0 3.07099,0.1645 4.55168,0.4936 1.48064,0.3107 2.91561,0.786 4.3049,1.4258"
         style="font-variant:normal;font-stretch:normal;text-align:start;line-height:125%;writing-mode:lr-tb;text-anchor:start;fill:#000000;fill-opacity:1;font-family:DejaVu Sans;-inkscape-font-specification:DejaVu Sans"
         id="path4597"
         inkscape:connector-curvature="0" />
      <path
         d="m 233.99242,2204.1688 0,2.4678 -23.19711,0 c 0.21935,3.4731 1.2613,6.1237 3.12585,7.9517 1.88281,1.8097 4.49682,2.7146 7.84205,2.7145 1.93764,1e-4 3.81132,-0.2376 5.62105,-0.7129 1.82796,-0.4752 3.63766,-1.1882 5.42911,-2.1387 l 0,4.771 c -1.80973,0.7678 -3.66513,1.3527 -5.56621,1.7549 -1.90113,0.4022 -3.82965,0.6032 -5.78557,0.6032 -4.89901,0 -8.78347,-1.4258 -11.65339,-4.2775 -2.85166,-2.8516 -4.27749,-6.7086 -4.27749,-11.5711 0,-5.0269 1.35271,-9.0119 4.05813,-11.955 2.72368,-2.9613 6.38879,-4.442 10.99532,-4.442 4.13122,0 7.39417,1.3345 9.78885,4.0033 2.41291,2.6506 3.61938,6.2608 3.61941,10.8308 m -5.04524,-1.4807 c -0.0366,-2.7602 -0.81347,-4.9629 -2.33067,-6.6081 -1.49897,-1.6452 -3.49147,-2.4678 -5.97751,-2.4678 -2.81511,0 -5.07267,0.7952 -6.77268,2.3855 -1.68176,1.5904 -2.65059,3.8296 -2.90649,6.7178 l 17.98735,-0.027"
         style="font-variant:normal;font-stretch:normal;text-align:start;line-height:125%;writing-mode:lr-tb;text-anchor:start;fill:#000000;fill-opacity:1;font-family:DejaVu Sans;-inkscape-font-specification:DejaVu Sans"
         id="path4599"
         inkscape:connector-curvature="0" />
    </g>
    <g
       transform="matrix(1.4005471,0,0,1.4005471,-283.99384,9168.2641)"
       style="fill:#000000;fill-opacity:1;stroke:none"
       id="g6586">
      <path
         inkscape:connector-curvature="0"
         style="font-size:124.27999878px;font-style:normal;font-weight:normal;fill:#000000;fill-opacity:1;stroke:none;font-family:Bitstream Vera Sans"
         d="m 602.75,-6011.9375 0,62.1875 14.90625,0 0,-29.0938 21.25,29.0938 18.78125,0 -25.21875,-31.6875 22.34375,-30.4687 -17.25,0 -19.90625,29.2187 0,-29.25 -14.90625,0 z"
         id="path6588" />
      <path
         inkscape:connector-curvature="0"
         style="font-size:124.63899994px;font-style:normal;font-weight:normal;fill:#000000;fill-opacity:1;stroke:none;font-family:Bitstream Vera Sans"
         d="m 399.78121,-6032.7628 0,83.125 14.9688,0 0,-31.6563 c 0,-12.8378 3.9937,-19.0625 12.5937,-19.0625 8.7248,0 12.7188,5.8505 12.7188,18.9375 l 0,31.7813 14.9375,0 0,-35.1563 c 0,-7.4783 -0.7554,-11.949 -2.625,-15.9375 -3.7392,-7.7276 -12.8378,-13.3437 -21.5625,-13.3437 -6.2319,0 -11.4509,2.106 -16.0625,6.3437 l 0,-25.0312 -14.9688,0 z"
         id="path6590" />
      <path
         inkscape:connector-curvature="0"
         style="font-size:124.63899994px;font-style:normal;font-weight:normal;fill:#000000;fill-opacity:1;stroke:none;font-family:Bitstream Vera Sans"
         d="m 372.31251,-6014.0753 c -11.5914,0 -20.8125,8.5935 -20.8125,19.3125 0,5.3594 1.8858,9.8535 5.625,13.2187 3.2406,2.8667 4.6143,3.4756 11.7187,5.8438 8.3508,2.742 10.5938,4.5105 10.5938,8.125 0,3.6145 -2.8862,6.3437 -6.75,6.3437 -4.3624,0 -6.7231,-2.36 -8.2188,-7.9687 l -15.2187,0 c 0.4986,5.1102 1.0043,7.1024 2.5,10.0937 3.4899,6.8552 11.3371,11.5938 19.8125,11.5938 12.5885,0 22.8125,-9.8472 22.8125,-21.8125 0,-5.6088 -1.8553,-9.9785 -5.8438,-13.3438 -2.4927,-2.1188 -5.9846,-3.5988 -11.4687,-5.3437 l -4.25,-1.375 c -4.8609,-1.6203 -6.3438,-2.8833 -6.3438,-5.75 0,-2.9914 2.4782,-5.2188 5.7188,-5.2188 3.116,0 5.2518,1.8539 5.875,5.3438 l 14.6875,0 c -0.4986,-10.8436 -9.3447,-19.0625 -20.4375,-19.0625 z"
         id="path6592" />
      <path
         inkscape:connector-curvature="0"
         style="font-size:124.63899994px;font-style:normal;font-weight:normal;fill:#000000;fill-opacity:1;stroke:none;font-family:Bitstream Vera Sans"
         d="m 491.96875,-6014.0625 c -17.6987,0 -31.15625,14.2104 -31.15625,32.9063 0,19.319 12.83185,33.6562 30.28125,33.6562 7.7276,0 17.2009,-4.2347 21.8125,-9.7188 l 0,7.5938 13.71875,0 0,-62.3125 -13.71875,0 0,7.8437 c -4.6116,-5.858 -13.0852,-9.9687 -20.9375,-9.9687 z m 1.28125,13.7187 c 0.32212,-0.017 0.64157,0 0.96875,0 10.5943,0 18.3125,8.2197 18.3125,19.3126 0,11.4668 -7.7182,19.8124 -18.3125,19.8124 -10.345,0 -18.4375,-8.4684 -18.4375,-19.1874 0,-10.9877 7.48297,-19.4227 17.46875,-19.9376 z"
         id="path6594" />
      <path
         inkscape:connector-curvature="0"
         style="font-size:124.63899994px;font-style:normal;font-weight:normal;fill:#000000;fill-opacity:1;stroke:none;font-family:Bitstream Vera Sans"
         d="m 565.62501,-6014.0753 c -18.1973,0 -33.0313,14.834 -33.0313,33.0312 0,18.4466 14.959,33.5313 33.1563,33.5313 5.9827,0 12.7027,-2.0094 17.9375,-5.25 6.3566,-3.9885 10.2274,-8.9614 13.2187,-17.1875 l -16.8125,0 c -3.4898,5.7334 -8.235,8.7187 -13.8437,8.7187 -10.8436,0 -18.6875,-8.345 -18.6875,-19.5625 0,-11.3421 7.5928,-19.5625 18.0625,-19.5625 6.6058,0 10.7296,2.6126 14.4687,9.0938 l 16.8125,0 c -1.7449,-5.4841 -2.852,-7.4785 -5.7187,-10.8438 -6.3566,-7.6029 -15.716,-11.9687 -25.5625,-11.9687 z"
         id="path6596" />
    </g>
    <path
       id="path6600"
       d="m 192.19645,747.2757 0,21.00821 11.68581,0 c 0.94981,-7.04767 4.33492,-13.35595 9.3224,-18.16335 l 0,-2.84486 -21.00821,0 z"
       style="fill:#00be00;fill-opacity:1;stroke:none"
       inkscape:connector-curvature="0" />
    <path
       id="path6602"
       d="m 192.19645,775.28664 0,21.00821 21.00821,0 0,-1.79445 c -0.0479,-0.042 -0.0831,-0.0887 -0.13124,-0.13123 a 4.6923018,4.6923018 0 0 1 -0.0437,-0.0437 c -5.4874,-4.93851 -8.62933,-11.60108 -9.27863,-19.03869 l -11.55451,0 z"
       style="fill:#00be00;fill-opacity:1;stroke:none"
       inkscape:connector-curvature="0" />
    <path
       sodipodi:nodetypes="cccccccc"
       id="path6604"
       d="m 192.19645,803.29759 0,21.0082 12.21102,0 c -2.24681,-4.5183 -3.22706,-8.41527 -3.93904,-15.71239 -0.26362,-2.60612 2.06366,-5.17266 4.68308,-5.16451 l 0.0343,0 0,-0.13123 -12.98944,0 z"
       style="fill:#00be00;fill-opacity:1;stroke:none"
       inkscape:connector-curvature="0" />
    <rect
       y="719.2702"
       x="332.24634"
       height="21.008207"
       width="21.008207"
       id="rect6606"
       style="fill:#00be00;fill-opacity:1;stroke:none" />
    <rect
       style="fill:#00be00;fill-opacity:1;stroke:none"
       id="rect6608"
       width="21.008207"
       height="21.008207"
       x="304.23538"
       y="691.25928" />
    <rect
       style="fill:#00be00;fill-opacity:1;stroke:none"
       id="rect6610"
       width="21.008207"
       height="21.008207"
       x="136.16974"
       y="719.2702" />
    <rect
       style="fill:#00be00;fill-opacity:1;stroke:none"
       id="rect6612"
       width="21.008207"
       height="21.008207"
       x="248.2135"
       y="635.23743" />
    <rect
       y="663.24835"
       x="276.22446"
       height="21.008207"
       width="21.008207"
       id="rect6614"
       style="fill:#00be00;fill-opacity:1;stroke:none" />
    <rect
       style="fill:#00be00;fill-opacity:1;stroke:none"
       id="rect6616"
       width="21.008207"
       height="21.008207"
       x="304.23538"
       y="719.2702" />
    <rect
       style="fill:#00be00;fill-opacity:1;stroke:none"
       id="rect6618"
       width="21.008207"
       height="21.008207"
       x="276.22446"
       y="691.25928" />
    <rect
       y="663.24835"
       x="248.2135"
       height="21.008207"
       width="21.008207"
       id="rect6620"
       style="fill:#00be00;fill-opacity:1;stroke:none" />
    <rect
       style="fill:#00be00;fill-opacity:1;stroke:none"
       id="rect6622"
       width="21.008207"
       height="21.008207"
       x="220.20256"
       y="635.23743" />
    <rect
       y="663.24835"
       x="192.19162"
       height="21.008207"
       width="21.008207"
       id="rect6624"
       style="fill:#00be00;fill-opacity:1;stroke:none" />
    <rect
       style="fill:#00be00;fill-opacity:1;stroke:none"
       id="rect6626"
       width="21.008207"
       height="21.008207"
       x="164.18068"
       y="691.25928" />
    <rect
       y="747.28119"
       x="164.18068"
       height="21.008207"
       width="21.008207"
       id="rect6628"
       style="fill:#00be00;fill-opacity:1;stroke:none" />
    <rect
       style="fill:#00be00;fill-opacity:1;stroke:none"
       id="rect6630"
       width="21.008207"
       height="21.008207"
       x="164.18068"
       y="775.29211" />
    <rect
       y="803.30304"
       x="164.18068"
       height="21.008207"
       width="21.008207"
       id="rect6632"
       style="fill:#00be00;fill-opacity:1;stroke:none" />
    <rect
       style="fill:#00be00;fill-opacity:1;stroke:none"
       id="rect6634"
       width="21.008207"
       height="21.008207"
       x="164.18068"
       y="719.2702" />
    <rect
       y="691.25928"
       x="192.19162"
       height="21.008207"
       width="21.008207"
       id="rect6636"
       style="fill:#00be00;fill-opacity:1;stroke:none" />
    <rect
       style="fill:#00be00;fill-opacity:1;stroke:none"
       id="rect6638"
       width="21.008207"
       height="21.008207"
       x="220.20256"
       y="663.24835" />
    <rect
       y="691.25928"
       x="220.20256"
       height="21.008207"
       width="21.008207"
       id="rect6640"
       style="fill:#00be00;fill-opacity:1;stroke:none" />
    <rect
       style="fill:#00be00;fill-opacity:1;stroke:none"
       id="rect6642"
       width="21.008207"
       height="21.008207"
       x="192.19162"
       y="719.2702" />
    <rect
       style="fill:#00be00;fill-opacity:1;stroke:none"
       id="rect6644"
       width="21.008207"
       height="21.008207"
       x="248.2135"
       y="691.25928" />
    <rect
       y="719.2702"
       x="220.20256"
       height="21.008207"
       width="21.008207"
       id="rect6646"
       style="fill:#00be00;fill-opacity:1;stroke:none" />
    <rect
       y="719.2702"
       x="248.2135"
       height="21.008207"
       width="21.008207"
       id="rect6648"
       style="fill:#00be00;fill-opacity:1;stroke:none" />
    <rect
       y="775.29211"
       x="304.23538"
       height="21.008207"
       width="21.008207"
       id="rect6650"
       style="fill:#00be00;fill-opacity:1;stroke:none" />
    <rect
       style="fill:#00be00;fill-opacity:1;stroke:none"
       id="rect6652"
       width="21.008207"
       height="21.008207"
       x="304.23538"
       y="803.30304" />
  </g>
</svg>
